<svg xmlns="http://www.w3.org/2000/svg" version="1.1" xmlns:xlink="http://www.w3.org/1999/xlink" xmlns:svgjs="http://svgjs.com/svgjs" width="786" height="1374"><svg xmlns="http://www.w3.org/2000/svg" width="786" height="1374" viewBox="0 0 786 1374" version="1.1"><path d="M 417.025 1.695 C 415.115 2.688, 412.190 5.451, 410.525 7.836 C 407.818 11.716, 407.507 12.926, 407.569 19.336 C 407.608 23.416, 408.392 28.653, 409.390 31.500 C 414.763 46.835, 428.195 69.872, 447.533 96.918 C 482.511 145.837, 558.860 231.003, 611.764 280.115 L 624.028 291.500 613.851 325.793 L 603.675 360.086 614.087 370.023 C 619.814 375.488, 624.803 379.856, 625.173 379.730 C 625.543 379.603, 634.713 368.250, 645.549 354.500 C 656.386 340.750, 665.790 328.922, 666.446 328.216 C 667.404 327.185, 669.203 327.954, 675.570 332.119 C 684.208 337.769, 690.532 340.944, 693.215 340.978 C 694.158 340.990, 695.429 340.067, 696.040 338.926 C 697.356 336.466, 694.592 326.315, 689.956 316.581 C 688.382 313.277, 687.185 310.521, 687.297 310.459 C 687.409 310.396, 708.200 299.190, 733.500 285.558 C 758.800 271.925, 780.056 260.323, 780.736 259.775 C 781.676 259.017, 781.077 257.621, 778.236 253.944 C 776.181 251.285, 774.050 248.921, 773.500 248.692 C 772.950 248.462, 747.975 251.130, 718 254.619 C 688.025 258.109, 662.534 260.972, 661.354 260.982 C 659.746 260.995, 658.005 259.053, 654.424 253.250 C 641.582 232.441, 621.354 203.013, 604.208 180.194 C 599.374 173.760, 596.098 168.526, 596.606 168.049 C 597.098 167.588, 635.188 146.844, 681.250 121.950 C 727.313 97.056, 765 76.413, 765 76.076 C 765 74.709, 749.644 57, 748.459 57 C 747.756 57, 698.571 62.625, 639.159 69.500 C 579.748 76.375, 529.826 82, 528.223 82 C 525.733 82, 523.023 79.524, 509.629 65.014 C 483.599 36.814, 453.350 10.896, 438.018 3.655 C 429.912 -0.172, 422.036 -0.908, 417.025 1.695 M 402 152.609 C 391.935 160.639, 380.220 164.952, 366.408 165.714 C 350.361 166.600, 336.338 162.539, 324.741 153.648 C 322.124 151.642, 319.765 150, 319.498 150 C 319.231 150, 320.657 152.137, 322.666 154.750 C 327.093 160.506, 332.276 171.526, 334.071 179 C 334.798 182.025, 335.372 188.550, 335.347 193.500 C 335.273 208.120, 331.279 219.967, 322.323 232.133 L 317.762 238.329 322.131 234.785 C 333.738 225.371, 347.299 220.617, 362.500 220.635 C 377.605 220.652, 389.908 224.704, 401.330 233.422 C 403.898 235.383, 406 236.769, 406 236.502 C 406 236.235, 404.400 233.921, 402.443 231.358 C 394.384 220.800, 390.984 211.036, 390.305 196.500 C 389.516 179.634, 393.250 167.309, 403.104 154.250 C 405.282 151.363, 406.938 149.004, 406.782 149.010 C 406.627 149.015, 404.475 150.635, 402 152.609 M 463.561 155.083 C 463.283 155.862, 450.442 198.722, 435.025 250.327 L 406.994 344.153 414.535 353.041 C 418.682 357.929, 422.465 362.169, 422.942 362.464 C 423.626 362.887, 526.181 234.510, 529.303 229.323 C 529.864 228.391, 525.478 223.403, 514.723 212.745 C 498.049 196.220, 485.812 182.315, 473.539 165.949 C 463.797 152.958, 464.172 153.367, 463.561 155.083 M 688.760 615.265 C 576.027 783.140, 426.178 929.995, 255.121 1040.239 C 243.362 1047.817, 232 1054.996, 229.871 1056.193 C 227.742 1057.389, 226 1058.943, 226 1059.645 C 226 1060.348, 226.857 1064.652, 227.905 1069.211 C 228.952 1073.770, 230.334 1080.088, 230.976 1083.250 L 232.142 1089 310.458 1089 L 388.775 1089 399.711 1077.250 C 509.273 959.535, 602.647 820.326, 670.525 673.500 C 685.404 641.314, 705.645 593.311, 704.724 592.391 C 704.525 592.192, 697.341 602.485, 688.760 615.265 M 706.275 620 C 705.603 621.375, 701.267 632.175, 696.641 644 C 648.375 767.364, 580.973 889.777, 503.101 995.500 C 482.438 1023.553, 458.225 1054.371, 439.257 1076.758 L 428.871 1089.016 486.654 1088.758 L 544.437 1088.500 545.285 1084 C 550.294 1057.409, 562.940 1010.126, 573.502 978.500 C 593.646 918.177, 625.637 848.210, 648.945 813.500 C 684.906 759.948, 702.886 708.079, 707.048 645.882 C 707.651 636.872, 707.999 626.800, 707.821 623.500 C 707.523 617.979, 707.400 617.699, 706.275 620" stroke="none" fill="#049df5" fill-rule="evenodd"></path><path d="M 359.500 303.134 C 345.820 304.309, 322.892 308.301, 308.818 311.958 C 219.387 335.192, 147.108 393.924, 104.577 477.917 C 80 526.454, 69 572.394, 69 626.500 C 69 694.206, 87.717 754.753, 126.317 811.914 C 131.368 819.393, 138.425 831.013, 142 837.737 C 145.923 845.114, 149.105 849.969, 150.025 849.981 C 152.395 850.011, 181.313 841.643, 204.250 834.290 L 225 827.639 225 755.058 L 225 682.477 193.381 638.989 C 175.990 615.070, 161.699 595.421, 161.622 595.324 C 161.544 595.227, 158.785 596.062, 155.491 597.180 C 138.375 602.984, 119.034 594.409, 111.355 577.610 C 109.007 572.474, 108.556 570.141, 108.531 562.979 C 108.503 555.353, 108.841 553.765, 111.750 547.856 C 115.603 540.030, 121.879 533.885, 129.825 530.160 C 134.685 527.882, 136.792 527.506, 144.500 527.541 C 152.236 527.576, 154.303 527.971, 159.217 530.348 C 179.445 540.135, 186.226 564.728, 173.848 583.415 C 170.985 587.738, 170.888 588.181, 172.325 590.373 C 173.169 591.661, 187.841 611.925, 204.930 635.403 L 236 678.092 236 750.546 C 236 798.937, 236.337 823, 237.016 823 C 238.056 823, 261.870 814.052, 272.317 809.735 C 275.517 808.413, 278.105 807.032, 278.067 806.666 C 278.030 806.300, 278 726.350, 278 629 C 278 461.099, 277.910 451.999, 276.250 451.990 C 272.869 451.971, 263.975 447.056, 259.142 442.536 C 256.127 439.716, 253.158 435.584, 251.380 431.734 C 248.882 426.327, 248.500 424.306, 248.500 416.500 C 248.500 408.836, 248.896 406.654, 251.170 401.804 C 254.576 394.537, 261.537 387.576, 268.804 384.170 C 273.724 381.864, 275.794 381.500, 284 381.500 C 292.206 381.500, 294.276 381.864, 299.196 384.170 C 306.463 387.576, 313.424 394.537, 316.830 401.804 C 319.104 406.654, 319.500 408.836, 319.500 416.500 C 319.500 424.306, 319.118 426.327, 316.620 431.734 C 314.842 435.584, 311.873 439.716, 308.858 442.536 C 304.025 447.056, 295.131 451.971, 291.750 451.990 C 290.090 451.999, 290 461.004, 290 627 C 290 723.250, 290.169 802, 290.376 802 C 291.150 802, 302.983 796.611, 317.250 789.761 L 332 782.679 332.052 670.590 L 332.103 558.500 359.962 536.674 L 387.820 514.849 385.160 509.174 C 382.853 504.254, 382.504 502.238, 382.533 494 C 382.562 485.558, 382.888 483.857, 385.459 478.722 C 389.026 471.598, 396.224 464.716, 403.782 461.202 C 408.543 458.988, 410.926 458.540, 418.021 458.522 C 425.637 458.502, 427.243 458.845, 433.144 461.750 C 440.970 465.603, 447.115 471.879, 450.840 479.825 C 453.103 484.652, 453.500 486.844, 453.500 494.500 C 453.500 502.420, 453.150 504.213, 450.581 509.446 C 446.863 517.018, 440.451 523.429, 433.196 526.830 C 428.271 529.139, 426.209 529.500, 417.963 529.500 C 409.268 529.500, 407.863 529.221, 402.041 526.335 L 395.655 523.170 369.354 543.835 L 343.052 564.500 343.026 670.250 C 343.007 747.840, 343.299 776, 344.123 776 C 345.803 776, 358.322 768.280, 378.725 754.664 L 396.950 742.500 396.725 703.110 L 396.500 663.720 392.254 662.467 C 381.549 659.307, 371.540 649.105, 368.338 638.091 C 366.324 631.163, 367.012 620.396, 369.897 613.709 C 372.909 606.727, 380.857 598.801, 388.278 595.379 C 393.578 592.935, 395.760 592.509, 403 592.505 C 410.223 592.501, 412.401 592.921, 417.500 595.302 C 431.780 601.972, 439.994 615.786, 438.696 630.948 C 438.058 638.390, 436.119 643.614, 431.720 649.740 C 428.043 654.860, 419.915 660.646, 413.904 662.420 L 409.500 663.720 409.187 700.610 L 408.874 737.500 402.687 741.938 C 279.304 830.433, 161.459 890.486, 84.500 904.083 C 68.868 906.845, 48.331 907.065, 39 904.570 C 11.206 897.140, 4.110 874.246, 18.503 838.436 C 20.910 832.447, 22.737 827.403, 22.561 827.228 C 22.090 826.756, 17.891 834.196, 12.249 845.500 C -9.070 888.219, -2.072 915.859, 32.500 925.485 C 40.645 927.752, 66.516 928.610, 80.069 927.061 C 220.035 911.070, 483.686 765.045, 655.977 608.092 C 675.518 590.291, 709.211 556.009, 723.391 539.500 C 781.989 471.280, 800.018 421.998, 774.954 398.554 C 769.521 393.472, 762.931 390.052, 753.500 387.420 C 744.392 384.878, 716.743 384.358, 701.500 386.442 C 684.659 388.745, 685.345 388.386, 688.997 392.996 C 693.774 399.027, 696.152 405.457, 696.731 413.905 C 698.234 435.837, 682.692 466.291, 650.959 503.592 C 640.692 515.659, 608.702 547.919, 597 558.004 L 589.500 564.467 599.500 553.954 C 611.074 541.785, 622.328 527.363, 631.640 512.767 C 639.262 500.820, 652.674 473.910, 656.541 462.804 L 659.221 455.109 652.771 445.304 C 641.355 427.951, 628.924 412.890, 612.017 395.928 C 593.894 377.744, 581.043 367.093, 562 354.474 C 543.013 341.892, 525.956 332.851, 506 324.791 C 498.243 321.658, 482.128 316, 480.962 316 C 480.598 316, 469.880 329.193, 457.144 345.317 C 432.829 376.104, 430.869 378, 423.367 378 C 417.172 378, 413.393 375.251, 403.538 363.571 C 393.893 352.140, 392 348.951, 392 344.136 C 392 342.633, 394.466 333.099, 397.481 322.951 C 400.496 312.803, 402.971 303.938, 402.981 303.250 C 403.003 301.780, 376.094 301.708, 359.500 303.134 M 277.071 393.165 C 266.934 396.076, 259.601 405.895, 259.657 416.480 C 259.733 430.826, 269.906 441, 284.173 441 C 295.370 441, 304.457 434.117, 307.619 423.240 C 312.895 405.090, 295.428 387.893, 277.071 393.165 M 407.290 472.086 C 398.144 476.613, 391.990 487.879, 393.523 497.287 C 394.520 503.399, 398.781 510.666, 403.329 514.011 C 419.335 525.782, 442.373 514.255, 442.325 494.500 C 442.301 484.485, 437.176 476.183, 428.499 472.105 C 422.435 469.254, 413.027 469.246, 407.290 472.086 M 137.821 539.384 C 132.047 540.952, 126.773 544.875, 123.222 550.241 C 119.414 555.995, 118.815 566.920, 121.951 573.399 C 124.991 579.678, 130.810 584.598, 137.496 586.542 C 157.766 592.434, 175.676 570.967, 166.119 552.234 C 160.728 541.665, 149.009 536.344, 137.821 539.384 M 691.429 586.599 C 678.610 600.344, 641.604 636.068, 617.183 658.273 C 494.790 769.563, 346.827 867.547, 200.500 934.210 C 194.450 936.966, 189.351 939.357, 189.170 939.524 C 188.988 939.691, 191.310 946.503, 194.329 954.663 C 200.948 972.554, 208.973 996.566, 211.988 1007.500 C 213.201 1011.900, 214.536 1015.863, 214.953 1016.306 C 215.370 1016.749, 221.176 1013.931, 227.854 1010.045 C 324.547 953.766, 412.353 888.939, 495.986 812.081 C 515.525 794.126, 565.926 743.382, 584.466 723 C 622.704 680.964, 661.645 633.230, 692.426 590.661 C 698.328 582.500, 702.961 575.628, 702.722 575.389 C 702.484 575.150, 697.402 580.195, 691.429 586.599 M 398.326 604.098 C 392.508 605.174, 388.940 607.218, 384.715 611.894 C 370.542 627.582, 381.749 652.426, 403 652.426 C 416.382 652.426, 427.215 642.023, 427.393 629 C 427.613 612.920, 413.943 601.209, 398.326 604.098 M 221.594 1118.261 C 213.873 1122.686, 213.500 1123.864, 213.500 1143.823 C 213.500 1160.883, 213.584 1161.618, 215.901 1164.867 C 217.222 1166.718, 220.147 1169.071, 222.401 1170.095 C 226.345 1171.885, 232.664 1171.956, 389 1171.956 C 545.336 1171.956, 551.655 1171.885, 555.599 1170.095 C 557.853 1169.071, 560.778 1166.718, 562.099 1164.867 C 564.356 1161.702, 564.519 1160.535, 564.816 1145.375 C 565.178 1126.872, 564.469 1123.985, 558.434 1119.382 L 554.656 1116.500 390.078 1116.261 L 225.500 1116.023 221.594 1118.261 M 225.479 1195.922 C 220.786 1197.059, 217.066 1199.951, 214.942 1204.113 C 213.260 1207.410, 213 1210.051, 213 1223.812 C 213 1238.647, 213.150 1239.924, 215.250 1243.010 C 216.488 1244.828, 218.770 1247.257, 220.323 1248.408 L 223.147 1250.500 389 1250.500 L 554.853 1250.500 557.677 1248.408 C 559.230 1247.257, 561.512 1244.828, 562.750 1243.010 C 564.851 1239.923, 565 1238.649, 565 1223.753 C 565 1205.361, 564.170 1202.465, 557.667 1198.161 L 553.646 1195.500 391.073 1195.345 C 301.658 1195.260, 227.141 1195.519, 225.479 1195.922 M 247 1275.343 C 247 1277.159, 251.813 1288.758, 255.659 1296.211 C 276.046 1335.720, 316.565 1363.866, 364 1371.469 C 375.032 1373.238, 399.266 1373.484, 410.678 1371.944 C 439.459 1368.061, 468.990 1354.832, 489.733 1336.530 C 507.732 1320.650, 520.772 1302.116, 528.629 1281.250 L 530.983 1275 388.991 1275 C 310.896 1275, 247 1275.155, 247 1275.343" stroke="none" fill="#1b04b4" fill-rule="evenodd"></path></svg><style>@media (prefers-color-scheme: light) { :root { filter: none; } }
</style></svg>