<svg width="44" height="38" viewBox="0 0 44 38" fill="none" xmlns="http://www.w3.org/2000/svg">
<path d="M21.945 14.288C20.8686 14.288 19.8164 14.5644 18.9214 15.0821C18.0264 15.5999 17.3288 16.3358 16.9169 17.1968C16.505 18.0578 16.3972 19.0052 16.6072 19.9193C16.8172 20.8333 17.3355 21.6729 18.0967 22.3319C18.8578 22.9909 19.8275 23.4396 20.8832 23.6215C21.939 23.8033 23.0332 23.71 24.0277 23.3533C25.0222 22.9967 25.8721 22.3927 26.4702 21.6178C27.0682 20.843 27.3874 19.9319 27.3874 19C27.3874 18.3812 27.2466 17.7685 26.9731 17.1968C26.6996 16.6251 26.2987 16.1057 25.7933 15.6681C25.288 15.2306 24.688 14.8835 24.0277 14.6467C23.3674 14.4099 22.6597 14.288 21.945 14.288ZM43.7364 9.633C43.7248 8.16574 43.4128 6.71189 42.8147 5.339C42.3742 4.33439 41.6927 3.42208 40.8151 2.66225C39.9375 1.90243 38.8838 1.31236 37.7235 0.931C36.1378 0.413181 34.4586 0.142996 32.7639 0.133C29.933 -1.27405e-07 29.0991 0 21.945 0C14.7909 0 13.957 -1.27405e-07 11.1261 0.133C9.43143 0.142996 7.75223 0.413181 6.16654 0.931C5.00622 1.31236 3.9525 1.90243 3.0749 2.66225C2.1973 3.42208 1.51578 4.33439 1.0753 5.339C0.477224 6.71189 0.16516 8.16574 0.153615 9.633C-1.47153e-07 12.084 0 12.806 0 19C0 25.194 -1.47153e-07 25.916 0.153615 28.367C0.177236 29.8394 0.488878 31.2977 1.0753 32.68C1.51383 33.68 2.19478 34.587 3.0723 35.34C3.94614 36.1044 5.00212 36.6944 6.16654 37.069C7.75223 37.5868 9.43143 37.857 11.1261 37.867C13.957 38 14.7909 38 21.945 38C29.0991 38 29.933 38 32.7639 37.867C34.4586 37.857 36.1378 37.5868 37.7235 37.069C38.8879 36.6944 39.9439 36.1044 40.8177 35.34C41.6952 34.587 42.3762 33.68 42.8147 32.68C43.4122 31.3004 43.7242 29.8404 43.7364 28.367C43.89 25.916 43.89 25.194 43.89 19C43.89 12.806 43.89 12.084 43.7364 9.633ZM38.1624 24.833C38.0919 26.0055 37.8029 27.1604 37.3065 28.253C36.8805 29.1644 36.2471 29.9923 35.4441 30.6876C34.6411 31.3828 33.6849 31.9311 32.6322 32.3C31.3583 32.7058 30.017 32.9304 28.6602 32.965C26.9265 32.965 26.4657 32.965 21.945 32.965C17.4243 32.965 16.9635 32.965 15.2298 32.965C13.873 32.9304 12.5317 32.7058 11.2578 32.3C10.1695 31.9499 9.18678 31.3913 8.38299 30.666C7.58785 29.9844 6.97378 29.1609 6.5835 28.253C6.11291 27.1512 5.86065 25.9885 5.83737 24.814C5.83737 23.313 5.83737 22.914 5.83737 19C5.83737 15.086 5.83737 14.687 5.83737 13.186C5.86065 12.0115 6.11291 10.8488 6.5835 9.747C6.98791 8.8048 7.63307 7.95393 8.47077 7.258C9.26152 6.57328 10.2116 6.04218 11.2578 5.7C12.5317 5.29417 13.873 5.0696 15.2298 5.035C16.9635 5.035 17.4243 5.035 21.945 5.035C26.4657 5.035 26.9265 5.035 28.6602 5.035C30.017 5.0696 31.3583 5.29417 32.6322 5.7C33.7205 6.05013 34.7032 6.60872 35.507 7.334C36.3022 8.01562 36.9162 8.83905 37.3065 9.747C37.7752 10.8499 38.0346 12.0113 38.0746 13.186C38.0746 14.687 38.0746 15.086 38.0746 19C38.0746 22.914 38.2282 23.313 38.1624 24.814V24.833ZM34.6512 10.697C34.3899 10.0833 33.9779 9.52592 33.4437 9.06341C32.9095 8.60089 32.2658 8.24422 31.5569 8.018C30.5836 7.72589 29.5585 7.5844 28.5285 7.6C26.8168 7.6 26.334 7.6 21.945 7.6C17.556 7.6 17.0732 7.6 15.3615 7.6C14.3263 7.60876 13.301 7.776 12.3331 8.094C11.6351 8.30995 10.9982 8.65205 10.4647 9.09758C9.93115 9.54311 9.51329 10.0819 9.23884 10.678C8.92015 11.5242 8.76446 12.41 8.778 13.3C8.778 14.782 8.778 15.2 8.778 19C8.778 22.8 8.778 23.218 8.778 24.7C8.79976 25.5953 8.99255 26.4813 9.34857 27.322C9.60985 27.9357 10.0218 28.4931 10.556 28.9556C11.0902 29.4181 11.734 29.7748 12.4428 30.001C13.3791 30.2991 14.3644 30.4659 15.3615 30.495C17.0732 30.495 17.556 30.495 21.945 30.495C26.334 30.495 26.8168 30.495 28.5285 30.495C29.5637 30.4862 30.589 30.319 31.5569 30.001C32.2658 29.7748 32.9095 29.4181 33.4437 28.9556C33.9779 28.4931 34.3899 27.9357 34.6512 27.322C35.0184 26.484 35.2116 25.5963 35.2217 24.7C35.2217 23.218 35.2217 22.8 35.2217 19C35.2217 15.2 35.2217 14.782 35.2217 13.3C35.2224 12.4028 35.0288 11.5135 34.6512 10.678V10.697ZM21.945 26.258C20.8452 26.258 19.7561 26.0701 18.7403 25.7052C17.7244 25.3402 16.8018 24.8053 16.0251 24.131C15.2484 23.4568 14.633 22.6565 14.2141 21.7761C13.7952 20.8956 13.5811 19.9522 13.584 19C13.584 17.5637 14.0762 16.1597 14.9983 14.9657C15.9204 13.7717 17.2309 12.8415 18.764 12.2927C20.2971 11.7439 21.9837 11.6013 23.6105 11.8829C25.2372 12.1645 26.7309 12.8576 27.9024 13.8746C29.0739 14.8915 29.8705 16.1866 30.1915 17.5957C30.5125 19.0049 30.3434 20.4648 29.7055 21.7907C29.0676 23.1166 27.9898 24.2488 26.6083 25.0441C25.2268 25.8393 23.6039 26.2618 21.945 26.258ZM30.723 13.167C30.2379 13.1225 29.7889 12.9242 29.4627 12.6102C29.1364 12.2963 28.9558 11.8889 28.9558 11.4665C28.9558 11.0441 29.1364 10.6367 29.4627 10.3228C29.7889 10.0088 30.2379 9.81046 30.723 9.766C31.2081 9.81046 31.6571 10.0088 31.9833 10.3228C32.3096 10.6367 32.4902 11.0441 32.4902 11.4665C32.4902 11.8889 32.3096 12.2963 31.9833 12.6102C31.6571 12.9242 31.2081 13.1225 30.723 13.167Z" fill="white"/>
</svg>
